<svg height="464pt" viewBox="0 -144 464 464" width="464pt" xmlns="http://www.w3.org/2000/svg"><path d="m0 72h24v32h-24zm0 0" fill="#2d2d30"/><path d="m440 72h24v32h-24zm0 0" fill="#2d2d30"/><path d="m120 72h224v32h-224zm0 0" fill="#787680"/><path d="m72 24v128h-48v-128zm0 0" fill="#8A2025 "/><path d="m440 72v80h-48v-128h48zm0 0" fill="#8A2025 "/><path d="m392 152v24h-48v-176h48zm0 0" fill="#740005"/><path d="m120 72v104h-48v-176h48zm0 0" fill="#740005"/><g fill="#810C11"><path d="m392 24h16v128h-16zm0 0"/><path d="m56 24h16v128h-16zm0 0"/></g></svg>