<svg height="464pt" viewBox="0 0 464 464" width="464pt" xmlns="http://www.w3.org/2000/svg"><path d="m80 0h32v408h-32zm0 0" fill="#c6c5ca"/><path d="m352 0h32v408h-32zm0 0" fill="#c6c5ca"/><path d="m8 32h40v128h-40zm0 0" fill="#720E12"/><path d="m128 408v24h-64v-24zm0 0" fill="#787680"/><path d="m400 408v24h-64v-24zm0 0" fill="#787680"/><path d="m464 432v32h-464v-32zm0 0" fill="#3e3d42"/><path d="m152 272h160v48h-160zm0 0" fill="#980D13"/><path d="m168 288h144v-16h-160v48h16zm0 0" fill="#720E12"/><path d="m48 80h368v32h-368zm0 0" fill="#3e3d42"/><path d="m416 32h40v128h-40zm0 0" fill="#720E12"/><path d="m64 120h64v16h-64zm0 0" fill="#272629"/><path d="m336 120h64v16h-64zm0 0" fill="#272629"/><path d="m176 432h-24v-16h16v-96h16v104c0 4.417969-3.582031 8-8 8zm0 0" fill="#adacb1"/><path d="m312 432h-24c-4.386719 0-7.957031-3.53125-8-7.921875l-1-104 16-.15625.921875 96.078125h16.078125zm0 0" fill="#adacb1"/><path d="m0 88h8v16h-8zm0 0" fill="#3e3d42"/><path d="m456 88h8v16h-8zm0 0" fill="#3e3d42"/><path d="m16 32h24v128h-24zm0 0" fill="#8E1015"/><path d="m424 32h24v128h-24zm0 0" fill="#8E1015"/><path d="m48 88h368v16h-368zm0 0" fill="#535357"/></svg>