<svg height="464pt" viewBox="0 -8 464 464" width="464pt" xmlns="http://www.w3.org/2000/svg"><path d="m312 0h32v392h-32zm0 0" fill="#acabb1"/><path d="m120 0h32v392h-32zm0 0" fill="#acabb1"/><path d="m0 120h24v32h-24zm0 0" fill="#2d2d30"/><path d="m440 120h24v32h-24zm0 0" fill="#2d2d30"/><path d="m392 48h48v176h-48zm0 0" fill="#8A2025"/><path d="m400 416v32h-336v-32zm0 0" fill="#2d2d30"/><g fill="#57565c"><path d="m72 120h320v32h-320zm0 0"/><path d="m296 392h64v24h-64zm0 0"/><path d="m104 392h64v24h-64zm0 0"/></g><path d="m24 48h48v176h-48zm0 0" fill="#8A2025"/><path d="m400 48h32v176h-32zm0 0" fill="#5B080C"/><path d="m32 48h32v176h-32zm0 0" fill="#5B080C"/><path d="m296 160h64v16h-64zm0 0"/><path d="m104 160h64v16h-64zm0 0"/></svg>